PathFileType	4	(X/Y/Z)	c:/Users/goper/Files/vsCode/490R/osim_files/A04/A04_Slow_03.trc
DataRate	CameraRate	NumFrames	NumMarkers	Units                	OrigDataRate	OrigDataStartFrame	OrigNumFrames
120.00	120.00	9	36	mm	120.0	691	1380
                Frame#	Time	LPSIS			LASIS			LTH1			LTH2			LTH3			LTH4			LLFE			LMFE			LSH1			LSH2			LSH3			LSH4			LLMAL			LMMAL			LCAL			LMTP5			LTOE			LMTP1			RPSIS			RASIS			RTH1			RTH2			RTH3			RTH4			RLFE			RMFE			RSH1			RSH2			RSH3			RSH4			RLMAL			RMMAL			RCAL			RMTP1			RTOE			RMTP5		
		X1	Y1	Z1	X2	Y2	Z2	X3	Y3	Z3	X4	Y4	Z4	X5	Y5	Z5	X6	Y6	Z6	X7	Y7	Z7	X8	Y8	Z8	X9	Y9	Z9	X10	Y10	Z10	X11	Y11	Z11	X12	Y12	Z12	X13	Y13	Z13	X14	Y14	Z14	X15	Y15	Z15	X16	Y16	Z16	X17	Y17	Z17	X18	Y18	Z18	X19	Y19	Z19	X20	Y20	Z20	X21	Y21	Z21	X22	Y22	Z22	X23	Y23	Z23	X24	Y24	Z24	X25	Y25	Z25	X26	Y26	Z26	X27	Y27	Z27	X28	Y28	Z28	X29	Y29	Z29	X30	Y30	Z30	X31	Y31	Z31	X32	Y32	Z32	X33	Y33	Z33	X34	Y34	Z34	X35	Y35	Z35	X36	Y36	Z36

691	5.75000	-91.40628	1074.50781	382.47299	-317.03632	1036.44409	456.14410	-365.71103	742.08813	506.76328	-389.17151	704.46954	507.18649	-418.91580	770.54688	496.96848	-436.21539	729.66345	498.85019	-467.90903	585.28998	499.10269	-469.81564	577.71783	358.62787	-410.69711	493.80908	508.67996	-406.49942	450.30933	508.05185	-469.58493	480.96051	491.76950	-456.16812	439.17102	491.36432	-314.27692	181.32251	482.64401	-331.55780	174.36084	396.85419	-238.43330	162.41516	431.86542	-430.03183	84.58300	512.94562	-475.65192	80.33261	448.71878	-452.21805	70.70920	405.89484	-85.53825	1059.85864	276.93988	-303.54834	1024.63000	170.69418	-176.39215	721.24084	169.68521	-182.14301	679.24420	173.87099	-237.37624	722.00098	156.07187	-232.66698	676.14532	163.38748	-227.58041	541.88019	203.75113	-247.16127	544.66327	317.56860	-142.48169	340.31021	230.03983	-141.67081	293.78128	241.68230	-202.40585	330.68872	222.89439	-191.84990	285.22202	231.66031	-141.03557	98.57862	252.01987	-176.94258	116.64365	381.85388	-74.99535	63.50718	337.13785	-300.54514	55.56556	358.78751	-320.62247	75.46378	311.67929	-282.50903	49.30658	241.38770
692	5.75833	-98.89249	1074.14917	382.74704	-324.55417	1036.10425	456.20969	-373.46603	741.57092	505.41678	-397.14999	704.12817	505.74298	-426.29984	770.53986	495.30963	-443.96442	729.61383	497.05087	-476.13925	585.54553	497.42737	-478.12851	578.02557	356.99652	-423.05084	491.76819	506.92349	-420.10028	448.37411	505.92542	-482.19159	481.27487	490.05649	-470.24609	439.21222	490.11841	-339.63657	175.41960	481.15945	-357.32434	169.63029	395.25601	-264.97885	153.89677	430.19839	-459.37891	83.57637	511.28607	-505.06284	81.22985	447.05423	-481.84836	70.69289	404.10303	-93.01199	1059.52930	277.27979	-310.83185	1024.23914	170.81000	-180.45863	721.84509	169.95670	-185.86035	679.74817	174.33005	-241.23454	721.97601	156.36916	-236.22728	676.08722	163.89828	-229.53786	541.74438	204.20758	-249.16484	544.52277	318.04684	-143.37106	340.55087	230.44382	-142.55673	293.95651	242.06181	-203.06905	330.73218	223.19968	-192.67839	285.31357	231.95158	-141.27553	98.81358	252.12177	-177.23076	116.67212	381.98117	-75.07030	63.70463	337.20441	-301.61414	55.70230	358.99350	-320.67035	75.28561	311.72989	-282.49377	49.30308	241.39432
693	5.76667	-106.37517	1073.69263	382.98624	-332.30759	1035.76086	456.31342	-380.95142	740.81854	504.00583	-404.68121	703.47766	504.24280	-433.45261	770.09821	493.66534	-451.42438	729.12842	495.32730	-483.76569	585.33240	495.66135	-485.97440	578.03888	355.29642	-434.51227	489.44669	505.26468	-434.02164	445.76791	504.66040	-494.42239	481.63409	488.53708	-484.15622	439.09189	488.24991	-364.70963	169.90707	479.34882	-382.64340	164.87067	393.27362	-290.37137	144.91873	428.73175	-488.47470	83.23402	509.29315	-534.13702	82.83225	444.94019	-511.68387	71.54871	402.28290	-100.44485	1059.17175	277.59949	-318.17117	1023.63043	170.85164	-184.51738	722.39526	170.26411	-189.44824	680.18250	174.68044	-245.50639	721.76740	156.92531	-239.88036	675.89868	164.60646	-230.91406	541.69879	204.02165	-250.90089	544.34015	318.64896	-144.14456	340.86951	230.85291	-143.24156	294.17493	242.40685	-203.90721	330.85254	223.56073	-193.18796	285.36520	232.26186	-141.46693	99.02213	252.24998	-177.47420	116.75160	382.03131	-75.15549	63.89317	337.25214	-301.67117	55.51953	359.03845	-320.91531	74.97574	311.75699	-282.54086	49.31138	241.43654
694	5.77500	-113.92982	1073.15540	383.25836	-339.83444	1035.27991	456.43909	-387.93771	739.88055	502.52609	-412.01343	702.40216	502.66095	-440.52979	769.15173	492.06491	-458.43625	728.35547	493.67914	-490.69479	584.82001	494.03537	-493.59497	577.79742	353.66586	-445.60632	486.82419	503.45398	-446.93396	443.32355	502.87613	-505.97037	481.70154	486.71756	-497.56177	438.84875	486.49387	-390.02087	164.61813	476.62195	-408.10022	160.41432	390.85657	-317.06427	136.19740	425.69537	-517.23090	83.49577	506.98001	-562.98767	85.16948	442.64621	-540.97681	73.04696	400.26434	-108.01083	1058.65674	277.80270	-325.71777	1023.04187	170.96632	-188.63077	722.95953	170.61774	-192.97974	680.75800	175.16132	-249.66116	721.59113	157.45335	-243.50304	675.80615	165.21422	-232.73616	541.60681	204.48900	-252.76524	544.16675	319.28540	-144.95364	341.11285	231.25961	-143.85800	294.47214	242.78543	-204.84006	330.96371	223.93898	-193.84186	285.50900	232.57684	-141.65291	99.23125	252.36475	-177.38957	116.93842	382.39557	-75.22000	64.09256	337.34540	-301.48111	55.28147	359.20132	-320.94827	75.05583	311.71198	-282.55917	49.32064	241.47055
695	5.78333	-121.66492	1072.36963	383.47534	-347.48172	1034.62122	456.74039	-394.68130	738.61371	501.03967	-418.44315	701.29395	501.29349	-447.46878	767.75665	490.62891	-465.10281	727.13452	492.25232	-497.05417	583.79828	492.35495	-500.25223	577.01831	351.90857	-456.12546	484.09979	501.56870	-460.05743	440.52194	500.40881	-516.85291	481.61600	484.94370	-510.65762	438.72610	484.60089	-415.06830	159.76018	473.75720	-433.48621	156.50804	387.97833	-343.50851	128.24268	422.43307	-545.59900	84.27979	504.39343	-591.59760	88.07020	440.04572	-569.97699	75.32173	398.06317	-115.76074	1057.99255	278.04810	-333.22314	1022.39581	171.08205	-192.70761	723.48712	170.89465	-196.57719	681.29443	175.63133	-253.78947	721.36731	158.01924	-247.03325	675.68262	165.86893	-234.59052	541.49561	205.04900	-254.41722	543.97760	320.07822	-145.85876	341.36218	231.73683	-144.57341	294.74319	243.08746	-205.44931	331.04977	224.28311	-194.58844	285.65710	232.81833	-141.83353	99.45235	252.50980	-177.60355	116.94347	382.50137	-75.34299	64.25112	337.46494	-301.53198	55.15154	359.27762	-320.87128	75.13318	311.87811	-282.57446	49.32803	241.49597
696	5.79167	-129.31686	1071.53662	383.65085	-355.12610	1033.83691	457.06598	-401.02383	736.96472	499.55426	-424.75497	699.70190	499.86029	-453.74313	766.10339	489.52451	-471.44278	725.54730	490.89676	-502.93799	582.34808	490.60233	-507.56381	576.49786	350.19916	-468.40326	479.67966	498.23132	-472.20786	437.68887	498.15945	-527.23584	481.19324	483.02350	-522.68475	438.03464	482.45120	-439.65222	155.16498	470.45126	-458.72458	153.10718	384.78317	-369.85355	120.72756	418.61533	-573.23267	85.48540	501.64572	-619.27679	91.90351	437.50256	-598.71521	77.51286	394.53659	-123.49274	1057.25757	278.25311	-340.90646	1021.55780	171.24033	-196.79449	724.04779	171.15608	-200.19362	681.73755	175.98117	-257.92819	721.17731	158.50887	-251.64955	675.09924	167.07480	-236.46448	541.40472	205.55818	-256.25244	543.69073	320.76059	-146.56148	341.66730	232.14388	-145.34448	294.96384	243.51521	-206.26839	331.18823	224.57571	-195.28137	285.79816	233.18039	-141.99420	99.66769	252.67798	-177.86218	116.91291	382.62579	-75.44509	64.38599	337.57782	-301.26770	55.00486	359.53268	-320.85223	74.90864	312.11685	-282.57492	49.33187	241.50362
697	5.80000	-137.09129	1070.52466	383.80222	-362.76407	1032.88428	457.21799	-406.88770	735.16705	498.02518	-430.61374	697.84027	498.27966	-459.79932	764.14685	488.20065	-477.32205	723.59900	489.60526	-508.47986	580.45911	488.80539	-514.43506	575.50177	348.40292	-477.83939	477.42328	496.38254	-483.90869	434.61386	495.67587	-537.16711	480.56171	480.91037	-534.43036	437.18134	480.31705	-463.90680	151.14801	466.69540	-483.74210	150.10893	380.99112	-396.00339	113.87502	414.29504	-600.20355	87.18353	498.65326	-646.25909	95.77235	434.89493	-626.85901	80.80741	391.71368	-131.27028	1056.40503	278.43329	-348.81567	1020.70544	171.39972	-201.00877	724.57794	171.42595	-203.90205	682.25348	176.41219	-262.05814	720.94611	158.99046	-254.30357	675.39941	167.13647	-238.50871	541.28967	206.04457	-257.82343	543.53345	321.55905	-147.58047	341.87564	232.59323	-146.04770	295.23669	243.89590	-207.32855	331.31161	224.88585	-195.88141	285.87888	233.41173	-142.13176	99.96215	252.82037	-178.09239	116.91676	382.72366	-75.54561	64.58626	337.71097	-301.07034	55.16241	359.93005	-320.49323	75.22716	312.43256	-282.59573	49.32565	241.53001
698	5.80833	-144.83664	1069.55334	383.92920	-370.60947	1031.93445	457.41650	-412.54257	733.06940	496.42926	-436.18021	695.67102	496.70496	-465.74023	761.87170	486.64832	-483.01309	721.26367	488.22174	-513.66821	578.16479	486.88806	-521.06763	574.18152	346.51999	-487.72739	473.41302	493.14218	-495.66159	431.85190	493.07578	-546.76239	479.75317	478.85181	-545.75110	436.26743	478.06152	-487.77258	147.47496	462.51697	-508.14499	147.85480	377.07065	-421.78979	107.64461	409.32483	-626.39227	89.43038	495.58499	-672.41016	100.04554	432.09656	-654.07538	84.60636	388.77478	-139.14592	1055.48572	278.52957	-356.69360	1019.69586	171.66676	-205.37241	724.98010	171.65326	-207.61624	682.77136	176.76215	-266.43250	720.64264	159.55051	-259.35986	674.36230	168.57275	-240.73894	541.16144	206.48842	-259.77161	543.37524	322.21478	-148.63631	342.13437	232.94022	-146.93292	295.51587	244.19678	-208.00615	331.35458	225.14009	-196.84229	285.98453	233.65613	-142.27495	100.29226	252.94626	-178.45598	117.00530	382.81396	-75.65549	64.82680	337.83435	-301.16956	55.06335	359.93021	-321.91391	73.97742	311.28644	-282.62000	49.31666	241.53658
699	5.81667	-152.56261	1068.47119	383.98151	-378.37814	1030.81152	457.66684	-417.99573	730.67126	494.82565	-441.43723	693.17047	495.06165	-471.49924	759.29022	485.05563	-488.43298	718.61224	486.82251	-518.61829	575.43793	484.88303	-527.59064	572.65265	344.51877	-496.81604	469.71521	490.35074	-506.52515	428.46222	489.96124	-555.79498	478.61581	476.55603	-556.79779	435.12305	475.69147	-511.08243	144.26500	457.96298	-532.21393	146.09164	372.49240	-447.31900	102.12804	403.89481	-651.46710	91.90907	492.20526	-697.34277	104.22787	429.29919	-680.82581	89.21679	385.98526	-146.97572	1054.55078	278.62778	-364.52823	1018.60461	171.80516	-209.81845	725.44196	171.83484	-211.55701	683.12262	177.06766	-270.92001	720.30957	160.02260	-261.73834	675.07312	168.23219	-243.22919	540.95667	206.94740	-261.73917	543.29456	322.95059	-149.70055	342.48645	233.27422	-147.91739	295.77344	244.50563	-209.41742	331.49158	225.24437	-197.79642	285.97150	233.97369	-142.47469	100.63615	253.06261	-178.83646	117.09838	382.92920	-75.77171	65.17918	337.94733	-301.29514	54.91285	359.95856	-321.28134	74.23859	312.18411	-282.66486	49.27089	241.57748
